<svg xmlns="http://www.w3.org/2000/svg" width="18.563" height="18.568" viewBox="0 0 18.563 18.568">
  <g id="组_3967" data-name="组 3967" transform="translate(-131.7 -17.011)">
    <g id="组_19" data-name="组 19" transform="translate(131.7 17.011)">
      <g id="组_18" data-name="组 18">
        <path id="路径_41" data-name="路径 41" d="M160.058,18.524A9.285,9.285,0,1,1,166.3,1.679l1.514,1.063-2.721,2.337,1.843,4.037L164.32,10.31l-2.741-6a5.293,5.293,0,0,1,1.709-1.314,9.294,9.294,0,0,0-2.824-.1,6.613,6.613,0,0,0-5.743,4.971,6.41,6.41,0,0,0,5.619,7.8c3.517.348,7.244-2.214,7.009-5.745l2.861.284A9.292,9.292,0,0,1,160.058,18.524Z" transform="translate(-151.693 -0.001)" fill="#e4e4e4"/>
        <path id="路径_42" data-name="路径 42" d="M166.465,17.537l-3.81-2.8.3-2.988,3.814,2.442a60.018,60.018,0,0,0,7.639-3.737l.221,2.036a9.3,9.3,0,0,1,.008,1.928l-1.488-.148A39.537,39.537,0,0,1,166.465,17.537Z" transform="translate(-156.115 -4.217)" fill="#e4e4e4"/>
      </g>
    </g>
  </g>
</svg>
